<?xml version="1.0" encoding="UTF-8" standalone="no"?>
<!-- Created with Inkscape (http://www.inkscape.org/) -->

<svg
   xmlns:dc="http://purl.org/dc/elements/1.1/"
   xmlns:cc="http://creativecommons.org/ns#"
   xmlns:rdf="http://www.w3.org/1999/02/22-rdf-syntax-ns#"
   xmlns:svg="http://www.w3.org/2000/svg"
   xmlns="http://www.w3.org/2000/svg"
   xmlns:sodipodi="http://sodipodi.sourceforge.net/DTD/sodipodi-0.dtd"
   xmlns:inkscape="http://www.inkscape.org/namespaces/inkscape"
   width="88.404747"
   height="20.000002"
   id="svg3022"
   version="1.1"
   inkscape:version="0.48.5 r10040"
   sodipodi:docname="flourish.svg">
  <defs
     id="defs3024" />
  <sodipodi:namedview
     id="base"
     pagecolor="#ffffff"
     bordercolor="#666666"
     borderopacity="1.0"
     inkscape:pageopacity="0.0"
     inkscape:pageshadow="2"
     inkscape:zoom="1.979899"
     inkscape:cx="61.144468"
     inkscape:cy="32.583545"
     inkscape:document-units="px"
     inkscape:current-layer="layer1"
     showgrid="false"
     fit-margin-top="0"
     fit-margin-left="0"
     fit-margin-right="0"
     fit-margin-bottom="0"
     inkscape:window-width="766"
     inkscape:window-height="780"
     inkscape:window-x="0"
     inkscape:window-y="18"
     inkscape:window-maximized="0" />
  <metadata
     id="metadata3027">
    <rdf:RDF>
      <cc:Work
         rdf:about="">
        <dc:format>image/svg+xml</dc:format>
        <dc:type
           rdf:resource="http://purl.org/dc/dcmitype/StillImage" />
        <dc:title></dc:title>
      </cc:Work>
    </rdf:RDF>
  </metadata>
  <g
     inkscape:label="Layer 1"
     inkscape:groupmode="layer"
     id="layer1"
     transform="translate(-285.05794,-308.67012)">
    <path
       inkscape:connector-curvature="0"
       id="path3087"
       d="m 352.9192,327.94667 c -0.38774,-0.42035 -1.15701,-1.75782 -1.70949,-2.97216 -1.83952,-4.04327 -3.88433,-5.11754 -9.86045,-5.18032 -4.64559,-0.0488 -6.77605,0.46153 -9.5274,2.28224 -0.99713,0.65984 -1.94165,1.19971 -2.09895,1.19971 -0.15731,0 -1.17572,-0.57927 -2.26316,-1.28727 -2.44008,-1.58866 -3.60939,-2.10597 -4.79545,-2.12152 -0.50497,-0.007 -1.30026,-0.23048 -1.76731,-0.49747 -1.806,-1.0324 -5.92945,-0.44916 -9.5082,1.34488 -1.51905,0.76151 -3.12486,2.87759 -3.58997,4.73073 -0.29494,1.17512 -2.04513,2.95897 -2.66846,2.71978 -0.28821,-0.1106 -0.8385,-0.70991 -1.22285,-1.33182 -0.84934,-1.37426 -0.66327,-2.44193 0.77943,-4.47214 2.46491,-3.46873 -1.37063,-3.1553 -4.9448,0.40408 -1.47463,1.46852 -1.67714,1.57034 -2.20789,1.11 -0.98475,-0.85409 -5.75422,-3.31797 -7.8108,-4.03502 -2.07138,-0.7222 -2.42599,-0.82548 -3.9118,-1.13934 -1.267,-0.26764 -0.89487,-0.74687 0.80267,-1.03367 2.90032,-0.49 6.72231,-2.15603 10.09723,-4.40143 l 1.46002,-0.97138 1.59705,1.55845 c 1.55967,1.52195 4.46736,3.30899 5.38408,3.30899 0.76533,0 0.51789,-1.57617 -0.423,-2.69435 -1.24446,-1.47895 -1.44628,-3.41697 -0.49496,-4.75298 0.40908,-0.5745 0.95487,-1.04454 1.21287,-1.04454 0.53528,0 2.20205,2.04982 2.20205,2.70811 0,1.11179 2.15718,4.12657 3.5272,4.92944 2.88607,1.69135 10.25945,1.97239 13.14364,0.50099 0.75536,-0.38535 2.19741,-1.22777 3.20455,-1.87203 1.00715,-0.64426 1.93116,-1.17139 2.05337,-1.17139 0.1222,0 0.77917,0.43822 1.45993,0.97382 2.91727,2.29523 6.65346,3.57223 10.40897,3.55773 3.62353,-0.014 6.8806,-1.12297 8.24623,-2.80765 0.23854,-0.29427 1.0278,-1.68996 1.75391,-3.10154 1.58153,-3.07451 2.07865,-3.57262 3.04785,-3.05392 1.87954,1.0059 1.81192,4.5097 -0.11794,6.11135 -0.69428,0.57619 -0.68171,1.6808 0.0222,1.95091 0.73751,0.28301 3.22189,-1.07976 5.23148,-2.86967 l 1.62444,-1.44685 2.28428,1.53177 c 1.25634,0.84248 2.43835,1.53177 2.62667,1.53177 0.32648,0 2.36907,0.87523 4.43553,1.90058 0.52889,0.26243 1.32235,0.47715 1.76324,0.47715 0.44089,0 0.90665,0.16994 1.03502,0.37765 0.28653,0.46361 -0.4514,0.96884 -1.4253,0.97585 -1.23804,0.009 -5.96427,2.08772 -8.36173,3.67787 l -2.29071,1.51934 -1.61555,-1.50289 c -4.26667,-3.96912 -7.64614,-4.41527 -5.17402,-0.68306 0.57043,0.86118 1.12498,1.91577 1.23233,2.34353 0.24441,0.97381 -0.45662,2.72278 -1.26471,3.15527 -0.80606,0.43139 -0.77075,0.44116 -1.58134,-0.43758 z"
       style="fill:#c19842"
       inkscape:export-filename="/tmp/swoosh-2.png"
       inkscape:export-xdpi="75.279999"
       inkscape:export-ydpi="75.279999" />
  </g>
</svg>
